PathFileType	4	(X/Y/Z)	S:\OneDrive - The University of Tokyo\ìåëÂéˆã∆\ÉoÉCÉÅÉJ\ë™íË\hirabayashi_2\Trimmed\Trimmed_BarR40kg1.trc
DataRate	CameraRate	NumFrames	NumMarkers	Units	OrigDataRate	OrigDataStartFrame	OrigNumFrames
200.00	200.00	       24	12	mm	200.00	184	       293
Frame#	Time	BarR0			BarR50			BarR100			BarR130			BarR180			BarR230			BarL0			BarL50			BarL100			BarL130			BarL180			BarL230			
		X1	Y1	Z1	X2	Y2	Z2	X3	Y3	Z3	X4	Y4	Z4	X5	Y5	Z5	X6	Y6	Z6	X7	Y7	Z7	X8	Y8	Z8	X9	Y9	Z9	X10	Y10	Z10	X11	Y11	Z11	X12	Y12	Z12	

184	0.915	-576.49536	2754.31934	1664.18970	-603.60809	2305.07593	1653.44250	-637.40997	1851.42749	1646.80542	-660.75720	1349.63245	1646.72217	-689.72095	903.01324	1653.56494	-713.84003	455.35059	1663.98975	-1113.55762	2808.18408	1664.67578	-1140.70020	2356.49048	1667.87451	-1171.18713	1906.06726	1668.76868	-1198.97363	1404.23376	1669.15186	-1226.74512	952.66260	1668.31726	-1244.51611	506.40491	1667.64624	
185	0.920	-576.48730	2754.31348	1664.19849	-603.62201	2305.07471	1653.44885	-637.40936	1851.40491	1646.81030	-660.78284	1349.63745	1646.72766	-689.73816	903.00562	1653.56335	-713.83130	455.36240	1663.99377	-1113.56177	2808.16064	1664.70166	-1140.69592	2356.49463	1667.86462	-1171.17822	1906.04834	1668.75452	-1198.99536	1404.25977	1669.14771	-1226.75647	952.63593	1668.31750	-1244.50818	506.39685	1667.63940	
186	0.925	-576.49231	2754.32861	1664.19751	-603.62793	2305.07910	1653.41931	-637.41779	1851.38733	1646.83276	-660.75476	1349.63892	1646.73877	-689.73126	902.99597	1653.56897	-713.83984	455.34259	1663.98865	-1113.52881	2808.17236	1664.68970	-1140.70825	2356.45996	1667.88306	-1171.17346	1906.06604	1668.75793	-1198.97522	1404.22693	1669.14063	-1226.75415	952.64264	1668.31030	-1244.54089	506.43118	1667.64636	
187	0.930	-576.46643	2754.28979	1664.19214	-603.61133	2305.07739	1653.43823	-637.40344	1851.41101	1646.80823	-660.76886	1349.63110	1646.73999	-689.71643	903.02771	1653.55359	-713.82556	455.33524	1663.99670	-1113.55359	2808.16260	1664.68762	-1140.69556	2356.48560	1667.87268	-1171.19043	1906.06482	1668.76868	-1198.96265	1404.27295	1669.14392	-1226.76074	952.63275	1668.32178	-1244.52490	506.41595	1667.65247	
188	0.935	-576.48639	2754.31665	1664.18127	-603.61182	2305.07471	1653.44763	-637.39490	1851.42993	1646.81091	-660.75958	1349.62390	1646.73438	-689.70996	903.00049	1653.73975	-713.83569	455.33319	1663.99133	-1113.53113	2808.14380	1664.68860	-1140.68799	2356.49854	1667.88953	-1171.17517	1906.05322	1668.76587	-1198.95300	1404.28552	1669.19800	-1226.74219	952.65314	1668.31323	-1244.50732	506.39157	1667.64954	
189	0.940	-576.47687	2754.31299	1664.18604	-603.59583	2305.07104	1653.44141	-637.38837	1851.39294	1646.80359	-660.76599	1349.63171	1646.73450	-689.71661	903.01404	1653.54773	-713.82892	455.34509	1663.98804	-1113.52380	2808.17212	1664.69568	-1140.71094	2356.47388	1667.86365	-1171.19446	1906.06458	1668.75012	-1198.96179	1404.25586	1669.14868	-1226.74365	952.64050	1668.31177	-1244.51196	506.39984	1667.64270	
190	0.945	-576.48816	2754.32251	1664.18152	-603.60864	2305.06323	1653.44336	-637.41315	1851.39441	1646.79358	-660.77356	1349.62927	1646.72961	-689.72711	903.03986	1653.54504	-713.82397	455.33505	1663.98523	-1113.54199	2808.14453	1664.68652	-1140.69336	2356.47925	1667.86658	-1171.17627	1906.06458	1668.76086	-1198.96680	1404.27283	1669.13733	-1226.76184	952.63354	1668.31213	-1244.50208	506.37527	1667.64734	
191	0.950	-576.47900	2754.30200	1664.19739	-603.60034	2305.07788	1653.42493	-637.40631	1851.39490	1646.81543	-660.76239	1349.64233	1646.72705	-689.71954	903.00836	1653.76501	-713.83356	455.34180	1663.98889	-1113.52148	2808.15894	1664.68152	-1140.70007	2356.48560	1667.85583	-1171.18042	1906.05176	1668.74756	-1198.95605	1404.29443	1669.19214	-1226.73657	952.65228	1668.30505	-1244.52271	506.40750	1667.65710	
192	0.955	-576.48761	2754.33716	1664.20398	-603.61682	2305.08057	1653.43469	-637.39868	1851.39490	1646.81152	-660.76453	1349.63574	1646.73865	-689.72485	903.05121	1653.74158	-713.84058	455.34619	1663.99219	-1113.54883	2808.16528	1664.69397	-1140.70227	2356.48755	1667.88525	-1171.18396	1906.07312	1668.76709	-1198.94885	1404.27930	1669.18726	-1226.75854	952.62817	1668.31323	-1244.52722	506.41858	1667.64490	
193	0.960	-576.49091	2754.33569	1664.21045	-603.61414	2305.10815	1653.44409	-637.40930	1851.39441	1646.81543	-660.77435	1349.61646	1646.72546	-689.72882	903.02087	1653.55420	-713.83374	455.31921	1663.99658	-1113.54688	2808.15674	1664.69336	-1140.69885	2356.48096	1667.87390	-1171.17529	1906.06458	1668.75781	-1198.97656	1404.23523	1669.14807	-1226.74646	952.62915	1668.31885	-1244.51111	506.38403	1667.65320	
194	0.965	-576.49042	2754.30078	1664.19934	-603.61963	2305.08691	1653.43921	-637.39996	1851.38611	1646.81592	-660.77264	1349.63782	1646.73425	-689.72437	903.03235	1653.55518	-713.84167	455.33661	1663.98767	-1113.52380	2808.17017	1664.69092	-1140.69434	2356.50024	1667.86377	-1171.18616	1906.06177	1668.76208	-1198.97815	1404.26428	1669.14490	-1226.74805	952.64349	1668.32104	-1244.52295	506.42679	1667.64172	
195	0.970	-576.48016	2754.30664	1664.19263	-603.59265	2305.09082	1653.44177	-637.40210	1851.41333	1646.81250	-660.77374	1349.63098	1646.72559	-689.72430	903.01239	1653.54126	-713.82123	455.34726	1663.97498	-1113.54651	2808.14233	1664.69202	-1140.68616	2356.48730	1667.86060	-1171.19043	1906.04443	1668.75513	-1198.93823	1404.28601	1669.18848	-1226.74792	952.66632	1668.31531	-1244.51697	506.40271	1667.63330	
196	0.975	-576.47040	2754.31958	1664.18359	-603.61853	2305.07495	1653.44226	-637.38550	1851.41455	1646.81128	-660.76379	1349.64624	1646.72327	-689.73010	902.99609	1653.55615	-713.82800	455.35007	1663.98376	-1113.57544	2808.18164	1664.67688	-1140.69141	2356.50586	1667.85852	-1171.17371	1906.07849	1668.76526	-1198.97803	1404.25903	1669.14819	-1226.74854	952.63104	1668.31946	-1244.53381	506.42978	1667.64600	
197	0.980	-576.48944	2754.30908	1664.17725	-603.63013	2305.09985	1653.43762	-637.40198	1851.41052	1646.81335	-660.75189	1349.64307	1646.72778	-689.73279	903.01215	1653.56323	-713.83270	455.34052	1663.99487	-1113.52417	2808.17993	1664.68018	-1140.69580	2356.48438	1667.87817	-1171.16321	1906.03125	1668.76904	-1198.99158	1404.27368	1669.14685	-1226.72168	952.63733	1668.31787	-1244.52429	506.41287	1667.66003	
198	0.985	-576.47992	2754.29785	1664.18787	-603.60199	2305.07935	1653.44836	-637.37109	1851.37866	1646.81921	-660.74567	1349.62598	1646.73523	-689.71912	903.02283	1653.55371	-713.82251	455.33893	1663.99438	-1113.54395	2808.16699	1664.68518	-1140.70630	2356.48291	1667.85413	-1171.18701	1906.04785	1668.75439	-1198.97107	1404.26855	1669.15283	-1226.72998	952.63348	1668.32019	-1244.54126	506.42529	1667.64453	
199	0.990	-576.50745	2754.31836	1664.18018	-603.63165	2305.07007	1653.45276	-637.38708	1851.39502	1646.82471	-660.75403	1349.63062	1646.74072	-689.71692	903.04730	1653.55847	-713.84460	455.33456	1663.98840	-1113.55139	2808.18872	1664.70105	-1140.69971	2356.48413	1667.86658	-1171.16846	1906.05994	1668.77686	-1198.96240	1404.27051	1669.17737	-1226.76733	952.64087	1668.31189	-1244.50330	506.40222	1667.64709	
200	0.995	-576.48572	2754.30127	1664.19165	-603.60516	2305.08252	1653.43848	-637.37476	1851.40442	1646.80688	-660.76733	1349.61926	1646.73364	-689.72705	903.00769	1653.56226	-713.82849	455.32071	1663.99548	-1113.55908	2808.14575	1664.69409	-1140.70874	2356.48364	1667.87585	-1171.18591	1906.04919	1668.75012	-1198.96899	1404.26868	1669.14343	-1226.74805	952.65210	1668.31995	-1244.53479	506.40674	1667.64600	
201	1.000	-576.48694	2754.30566	1664.19238	-603.62323	2305.08545	1653.45605	-637.41119	1851.40552	1646.81519	-660.75348	1349.64612	1646.74158	-689.72327	903.03070	1653.55811	-713.82935	455.30878	1663.98279	-1113.54578	2808.18091	1664.69604	-1140.69653	2356.46484	1667.87561	-1171.18835	1906.04529	1668.75793	-1198.97168	1404.25146	1669.13928	-1226.74292	952.65179	1668.31482	-1244.51025	506.41150	1667.65332	
202	1.005	-576.49634	2754.31104	1664.18005	-603.59058	2305.05176	1653.45276	-637.40894	1851.40454	1646.80847	-660.76801	1349.65735	1646.72778	-689.72803	903.00372	1653.57776	-713.82587	455.33401	1663.98779	-1113.52112	2808.15430	1664.69006	-1140.71313	2356.48926	1667.88342	-1171.16931	1906.04895	1668.77600	-1198.94336	1404.26453	1669.18030	-1226.73926	952.67096	1668.31201	-1244.53174	506.42584	1667.65515	
203	1.010	-576.47681	2754.31421	1664.19067	-603.63062	2305.07813	1653.43701	-637.38867	1851.41980	1646.82678	-660.76080	1349.64148	1646.73242	-689.73712	903.01666	1653.55078	-713.84070	455.36096	1663.98889	-1113.56250	2808.16968	1664.69604	-1140.69397	2356.49219	1667.87854	-1171.18921	1906.03650	1668.75977	-1198.97314	1404.27991	1669.16272	-1226.74792	952.62860	1668.31360	-1244.51123	506.41470	1667.65295	
204	1.015	-576.45599	2754.30371	1664.19788	-603.59363	2305.09058	1653.43640	-637.39508	1851.38391	1646.82007	-660.76910	1349.61230	1646.74036	-689.73553	903.02332	1653.55579	-713.84436	455.34384	1663.98792	-1113.51929	2808.18823	1664.69080	-1140.68787	2356.47974	1667.87390	-1171.18274	1906.06238	1668.76611	-1198.97083	1404.25073	1669.14624	-1226.76270	952.62958	1668.32104	-1244.53735	506.42303	1667.64893	
205	1.020	-576.47021	2754.29663	1664.18030	-603.59174	2305.08325	1653.43726	-637.40338	1851.40857	1646.80542	-660.77631	1349.63660	1646.73462	-689.72809	903.00793	1653.56030	-713.82440	455.33130	1663.99609	-1113.50647	2808.18335	1664.69788	-1140.71082	2356.47290	1667.88269	-1171.19067	1906.04333	1668.75269	-1198.97375	1404.25415	1669.14050	-1226.74768	952.63538	1668.30933	-1244.52234	506.38791	1667.65271	
206	1.025	-576.48010	2754.29321	1664.19788	-603.58997	2305.06226	1653.43604	-637.39606	1851.40198	1646.81067	-660.77997	1349.65784	1646.73254	-689.73199	902.99701	1653.55298	-713.84534	455.32758	1663.98743	-1113.54614	2808.15747	1664.67456	-1140.70142	2356.49121	1667.86609	-1171.17200	1906.05994	1668.77466	-1198.97156	1404.26282	1669.14978	-1226.74756	952.65619	1668.30774	-1244.53430	506.42825	1667.65271	
207	1.030	-576.49750	2754.30493	1664.19299	-603.58630	2305.09351	1653.45496	-637.41345	1851.40967	1646.81677	-660.76813	1349.63757	1646.73645	-689.71155	903.03668	1653.56226	-713.83624	455.34561	1663.99597	-1113.50476	2808.16699	1664.69592	-1140.69421	2356.48071	1667.86243	-1171.17969	1906.05652	1668.76941	-1198.94946	1404.30139	1669.19543	-1226.76038	952.66010	1668.31348	-1244.53418	506.40372	1667.65271	
